#!OML:ASF \\sashay\E\Suitcase\Project 1\Capture day 1\Session 1\Male1.ASF
:FULLY-SPECIFIED
:DEGREES
236
root -0.248742 17.3559 -29.2362 9.93637 -3.38564 -6.47546
lowerback 4.04095 1.91098 2.50549
upperback 2.00501 2.656 4.14154
thorax -0.286269 1.32442 2.7407
lowerneck -17.1975 0.481985 -1.81962
upperneck 12.4961 1.70852 -3.74928
head 6.6541 0.399659 -0.736437
rclavicle 7.35503e-015 -8.74653e-015
rhumerus -38.3853 -33.05 -60.691
rradius 13.4563
rwrist 4.70836
rhand -16.6198 15.1992
rfingers 7.12502
rthumb 9.60216 -14.5619
lclavicle 7.35503e-015 -8.74653e-015
lhumerus -36.1541 6.48427 85.8769
lradius 34.7289
lwrist -4.77303
lhand -3.59861 40.5871
lfingers 7.12502
lthumb 22.1394 69.3394
rfemur 11.358 3.37657 32.8353
rtibia -3.49861e-014
rfoot -13.026 -10.5907
rtoes 4.00624
lfemur -42.9972 -1.67562 -11.9621
ltibia 24.4364
lfoot -14.8999 4.37906
ltoes -6.85878
237
root -0.240626 17.332 -29.1314 10.0748 -3.54084 -6.34972
lowerback 3.96559 1.98072 2.27063
upperback 1.79276 2.74815 4.14206
thorax -0.476483 1.36941 2.86635
lowerneck -16.626 0.399133 -1.72395
upperneck 12.0622 1.58095 -4.03053
head 6.42096 0.334301 -0.854851
rclavicle 6.36111e-015 -1.74931e-014
rhumerus -38.3344 -31.9435 -61.1508
rradius 13.6221
rwrist 3.88741
rhand -16.8928 15.2473
rfingers 7.12502
rthumb 9.33881 -14.5259
lclavicle 6.36111e-015 -1.74931e-014
lhumerus -36.317 6.68674 85.8596
lradius 34.5871
lwrist -4.7598
lhand -3.26529 41.2001
lfingers 7.12502
lthumb 22.4593 69.9142
rfemur 11.6386 3.52734 32.6049
rtibia 1.27222e-014
rfoot -13.1164 -10.4725
rtoes 6.48138
lfemur -42.9298 -1.5665 -12.382
ltibia 24.4404
lfoot -14.2923 4.48573
ltoes -9.47933
238
root -0.229856 17.3307 -29.0392 10.1493 -3.49507 -6.42208
lowerback 3.97233 1.99237 2.41312
upperback 1.72049 2.77202 4.07641
thorax -0.54534 1.38183 2.71578
lowerneck -17.0144 0.465844 -1.50255
upperneck 12.5441 1.68723 -4.24436
head 6.64693 0.362213 -0.950183
rclavicle -1.72943e-014 -2.3059e-014
rhumerus -38.5405 -33.1452 -60.3104
rradius 13.1005
rwrist 5.13693
rhand -17.1367 14.8788
rfingers 7.12502
rthumb 9.10346 -14.9047
lclavicle -1.72943e-014 -2.3059e-014
lhumerus -36.4724 6.77951 85.6702
lradius 34.5657
lwrist -4.92147
lhand -3.48047 40.1705
lfingers 7.12502
lthumb 22.2528 68.9094
rfemur 11.8492 3.50014 32.6272
rtibia 3.18055e-015
rfoot -12.8938 -10.4725
rtoes 4.70577
lfemur -42.5799 -1.8058 -12.3596
ltibia 24.3031
lfoot -14.7303 4.27572
ltoes -8.09056
239
root -0.227986 17.3178 -28.9425 10.3437 -3.33886 -6.73738
lowerback 3.76306 2.01607 2.64928
upperback 1.70329 2.80262 4.16752
thorax -0.440067 1.39816 2.68415
lowerneck -17.1097 0.426944 -1.82095
upperneck 12.5732 1.67726 -4.0069
head 6.66749 0.360994 -0.823024
rclavicle -5.30755e-014 -3.26007e-014
rhumerus -38.2047 -32.4867 -60.8819
rradius 13.4095
rwrist 4.06426
rhand -16.8379 14.8186
rfingers 7.12502
rthumb 9.39172 -14.9522
lclavicle -5.30755e-014 -3.26007e-014
lhumerus -36.2365 7.06418 85.5706
lradius 34.242
lwrist -5.06724
lhand -3.31679 41.6187
lfingers 7.12502
lthumb 22.4099 70.3387
rfemur 11.9617 3.43051 32.9244
rtibia -1.59028e-014
rfoot -12.7327 -10.2347
rtoes 7.06336
lfemur -42.484 -1.88562 -12.1362
ltibia 24.3216
lfoot -14.715 3.97452
ltoes -6.14889
240
root -0.211194 17.2972 -28.8284 10.5892 -3.79598 -6.2817
lowerback 3.47199 2.21116 2.05808
upperback 1.53626 3.03742 4.06513
thorax -0.481163 1.51455 2.90659
lowerneck -16.733 0.384909 -1.98966
upperneck 12.4129 1.65552 -4.09971
head 6.55264 0.342359 -0.827403
rclavicle -1.47101e-014 -2.54444e-014
rhumerus -38.6209 -32.7123 -60.2281
rradius 13.3147
rwrist 4.34943
rhand -16.784 15.1728
rfingers 7.12502
rthumb 9.44379 -14.5956
lclavicle -1.47101e-014 -2.54444e-014
lhumerus -36.5024 7.14315 85.6483
lradius 34.3839
lwrist -4.9427
lhand -3.14783 40.4818
lfingers 7.12502
lthumb 22.5721 69.1822
rfemur 12.182 3.8431 32.2766
rtibia -6.99722e-014
rfoot -12.7058 -10.296
rtoes 4.98312
lfemur -42.3689 -1.85396 -12.8524
ltibia 24.4088
lfoot -14.9104 4.44244
ltoes -8.38566
241
root -0.203452 17.2935 -28.7104 10.5801 -3.86452 -6.2452
lowerback 3.2602 2.29937 2.027
upperback 1.56081 3.14246 3.95021
thorax -0.336603 1.56747 2.81096
lowerneck -16.8622 0.302748 -1.91774
upperneck 12.4437 1.51473 -3.98544
head 6.58133 0.285793 -0.817051
rclavicle -6.16232e-015 -1.27222e-014
rhumerus -38.6464 -32.9695 -60.2483
rradius 13.3995
rwrist 4.32754
rhand -16.4917 14.9687
rfingers 7.12502
rthumb 9.72576 -14.7867
lclavicle -6.16232e-015 -1.27222e-014
lhumerus -36.525 7.18419 85.4447
lradius 34.4065
lwrist -4.69386
lhand -3.33742 41.1763
lfingers 7.12502
lthumb 22.3901 69.8987
rfemur 12.5882 3.89112 32.1741
rtibia 1.59028e-014
rfoot -12.6647 -10.1312
rtoes 3.03208
lfemur -41.7812 -2.207 -12.842
ltibia 24.3872
lfoot -15.4707 4.67588
ltoes -3.59239
